<svg width="197" height="25" viewBox="0 0 197 25" fill="none" xmlns="http://www.w3.org/2000/svg">
<rect x="10.8616" y="7.25663" width="3.36442" height="14.0123" rx="1.68221" fill="#FF451A"/>
<rect x="16.2925" y="5.31095" width="7.85151" height="14.0691" rx="3.92576" fill="#FF451A"/>
<rect x="26.2102" y="3.25005" width="3.36442" height="14.0123" rx="1.68221" fill="#FF451A"/>
<rect x="31.6387" y="7.90658" width="3.36442" height="10.9429" rx="1.68221" fill="#FF451A"/>
<rect x="5.43091" y="6.54029" width="3.36442" height="10.9429" rx="1.68221" fill="#FF451A"/>
<ellipse cx="38.7518" cy="13.729" rx="1.68221" ry="1.66813" fill="#FF451A"/>
<ellipse cx="1.68221" cy="12.3948" rx="1.68221" ry="1.66813" fill="#FF451A"/>
<path d="M57.896 19.3951V19.9211C57.896 20.6925 57.7923 21.3868 57.5849 22.0039C57.3774 22.6164 57.0827 23.1377 56.7008 23.5678C56.3189 23.998 55.864 24.3276 55.3359 24.5567C54.8079 24.7857 54.2209 24.9003 53.575 24.9003C52.9385 24.9003 52.3538 24.7857 51.8211 24.5567C51.293 24.3276 50.8357 23.998 50.4491 23.5678C50.0625 23.1377 49.7631 22.6164 49.5509 22.0039C49.3387 21.3868 49.2327 20.6925 49.2327 19.9211V19.3951C49.2327 18.619 49.3387 17.9247 49.5509 17.3123C49.7631 16.6998 50.0601 16.1785 50.442 15.7484C50.8239 15.3136 51.2789 14.9816 51.8069 14.7526C52.3397 14.5235 52.9243 14.4089 53.5608 14.4089C54.2067 14.4089 54.7937 14.5235 55.3218 14.7526C55.8498 14.9816 56.3048 15.3136 56.6867 15.7484C57.0733 16.1785 57.3703 16.6998 57.5778 17.3123C57.7899 17.9247 57.896 18.619 57.896 19.3951ZM55.93 19.9211V19.3811C55.93 18.8247 55.8781 18.3362 55.7744 17.9154C55.6707 17.4899 55.5174 17.1323 55.3147 16.8424C55.112 16.5525 54.8621 16.3351 54.5651 16.1902C54.268 16.0406 53.9333 15.9658 53.5608 15.9658C53.1836 15.9658 52.8489 16.0406 52.5566 16.1902C52.269 16.3351 52.0238 16.5525 51.8211 16.8424C51.6183 17.1323 51.4627 17.4899 51.3543 17.9154C51.2506 18.3362 51.1987 18.8247 51.1987 19.3811V19.9211C51.1987 20.4728 51.2506 20.9613 51.3543 21.3868C51.4627 21.8123 51.6183 22.1722 51.8211 22.4668C52.0285 22.7567 52.2784 22.9764 52.5707 23.126C52.863 23.2756 53.1978 23.3504 53.575 23.3504C53.9521 23.3504 54.2869 23.2756 54.5792 23.126C54.8715 22.9764 55.1167 22.7567 55.3147 22.4668C55.5174 22.1722 55.6707 21.8123 55.7744 21.3868C55.8781 20.9613 55.93 20.4728 55.93 19.9211Z" fill="#0B1228"/>
<path d="M62.1509 14.5492H65.8921C66.6747 14.5492 67.3466 14.6661 67.9076 14.8998C68.4687 15.1336 68.9001 15.4796 69.2018 15.9377C69.5036 16.3959 69.6544 16.9593 69.6544 17.6279C69.6544 18.1562 69.5601 18.6143 69.3715 19.0024C69.183 19.3904 68.9166 19.7154 68.5724 19.9772C68.2329 20.239 67.8322 20.4447 67.3701 20.5943L66.7619 20.9029H63.4592L63.4451 19.3811H65.9133C66.314 19.3811 66.6464 19.311 66.9104 19.1707C67.1745 19.0304 67.3725 18.8364 67.5045 18.5886C67.6412 18.3408 67.7096 18.058 67.7096 17.7401C67.7096 17.3988 67.6436 17.1042 67.5116 16.8564C67.3796 16.604 67.1792 16.4099 66.9104 16.2744C66.6417 16.1388 66.3022 16.071 65.8921 16.071H64.0957V24.76H62.1509V14.5492ZM67.9642 24.76L65.5809 20.1876L67.6389 20.1806L70.0505 24.6618V24.76H67.9642Z" fill="#0B1228"/>
<path d="M79.9913 21.4008H81.9362C81.8843 22.0834 81.6934 22.6889 81.3633 23.2172C81.0333 23.7408 80.5736 24.1522 79.9843 24.4515C79.3949 24.7507 78.6806 24.9003 77.8414 24.9003C77.1955 24.9003 76.6132 24.7881 76.0946 24.5637C75.5807 24.3346 75.1399 24.0096 74.7721 23.5889C74.4091 23.1634 74.1309 22.6538 73.9376 22.06C73.7443 21.4616 73.6476 20.7907 73.6476 20.0473V19.2689C73.6476 18.5255 73.7466 17.8546 73.9447 17.2562C74.1427 16.6577 74.4256 16.1481 74.7933 15.7274C75.1658 15.3019 75.6113 14.9746 76.13 14.7455C76.6533 14.5164 77.2379 14.4019 77.8838 14.4019C78.7231 14.4019 79.4326 14.5562 80.0126 14.8648C80.5925 15.1687 81.0427 15.5871 81.3633 16.1201C81.6839 16.6531 81.8772 17.2655 81.9432 17.9575H79.9984C79.9607 17.5273 79.8664 17.1627 79.7155 16.8634C79.5694 16.5642 79.3478 16.3375 79.0507 16.1832C78.7584 16.0242 78.3695 15.9448 77.8838 15.9448C77.5067 15.9448 77.1743 16.0149 76.8867 16.1551C76.6038 16.2954 76.368 16.5058 76.1795 16.7863C75.9909 17.0621 75.8494 17.4081 75.7551 17.8242C75.6608 18.2356 75.6137 18.7125 75.6137 19.2549V20.0473C75.6137 20.5663 75.6561 21.0315 75.741 21.4429C75.8259 21.8543 75.9579 22.2026 76.137 22.4878C76.3162 22.773 76.5472 22.9904 76.8301 23.14C77.113 23.2896 77.4501 23.3645 77.8414 23.3645C78.3176 23.3645 78.7042 23.2896 79.0012 23.14C79.303 22.9904 79.5316 22.7707 79.6872 22.4808C79.8475 22.191 79.9489 21.831 79.9913 21.4008Z" fill="#0B1228"/>
<path d="M92.8813 18.764V20.2788H87.464V18.764H92.8813ZM87.9944 14.5492V24.76H86.0496V14.5492H87.9944ZM94.324 14.5492V24.76H92.3792V14.5492H94.324Z" fill="#0B1228"/>
<path d="M105.736 23.2452V24.76H100.262V23.2452H105.736ZM100.856 14.5492V24.76H98.9113V14.5492H100.856ZM105.022 18.764V20.2437H100.262V18.764H105.022ZM105.715 14.5492V16.071H100.262V14.5492H105.715Z" fill="#0B1228"/>
<path d="M115.083 22.1091C115.083 21.9128 115.052 21.7374 114.991 21.5832C114.934 21.4242 114.828 21.2816 114.672 21.1554C114.522 21.0245 114.307 20.8982 114.029 20.7767C113.755 20.6504 113.402 20.5195 112.968 20.3839C112.487 20.2343 112.039 20.066 111.624 19.879C111.21 19.692 110.844 19.4746 110.528 19.2268C110.217 18.979 109.974 18.6938 109.8 18.3712C109.625 18.044 109.538 17.6653 109.538 17.2351C109.538 16.8144 109.628 16.431 109.807 16.085C109.991 15.739 110.25 15.4422 110.585 15.1944C110.92 14.9419 111.313 14.7479 111.766 14.6123C112.223 14.4767 112.728 14.4089 113.279 14.4089C114.043 14.4089 114.703 14.5468 115.259 14.8227C115.821 15.0985 116.254 15.4725 116.561 15.9448C116.867 16.417 117.02 16.9476 117.02 17.5367H115.083C115.083 17.2188 115.014 16.9383 114.878 16.6951C114.746 16.452 114.543 16.2603 114.269 16.1201C114.001 15.9798 113.661 15.9097 113.251 15.9097C112.855 15.9097 112.525 15.9681 112.261 16.085C112.002 16.2019 111.806 16.3609 111.674 16.5619C111.547 16.7629 111.483 16.9873 111.483 17.2351C111.483 17.4221 111.528 17.5905 111.617 17.7401C111.707 17.885 111.841 18.0229 112.02 18.1538C112.2 18.2801 112.421 18.3993 112.685 18.5115C112.954 18.619 113.265 18.7266 113.619 18.8341C114.185 19.0024 114.68 19.1894 115.104 19.3951C115.533 19.6008 115.889 19.8346 116.172 20.0964C116.459 20.3582 116.674 20.6528 116.815 20.98C116.962 21.3073 117.035 21.679 117.035 22.0951C117.035 22.5346 116.947 22.9273 116.773 23.2733C116.598 23.6193 116.349 23.9138 116.023 24.1569C115.698 24.4 115.307 24.5847 114.849 24.7109C114.397 24.8372 113.89 24.9003 113.329 24.9003C112.829 24.9003 112.334 24.8348 111.844 24.7039C111.358 24.5683 110.917 24.3673 110.521 24.1008C110.125 23.8296 109.809 23.4883 109.573 23.0769C109.338 22.6608 109.22 22.1746 109.22 21.6182H111.172C111.172 21.9408 111.224 22.2167 111.327 22.4458C111.436 22.6702 111.587 22.8548 111.78 22.9998C111.978 23.14 112.209 23.2429 112.473 23.3083C112.737 23.3738 113.022 23.4065 113.329 23.4065C113.725 23.4065 114.05 23.3528 114.305 23.2452C114.564 23.133 114.757 22.9787 114.885 22.7824C115.017 22.586 115.083 22.3616 115.083 22.1091Z" fill="#0B1228"/>
<path d="M125.561 14.5492V24.76H123.623V14.5492H125.561ZM128.758 14.5492V16.071H120.462V14.5492H128.758Z" fill="#0B1228"/>
<path d="M132.08 14.5492H135.821C136.603 14.5492 137.275 14.6661 137.836 14.8998C138.397 15.1336 138.829 15.4796 139.13 15.9377C139.432 16.3959 139.583 16.9593 139.583 17.6279C139.583 18.1562 139.489 18.6143 139.3 19.0024C139.112 19.3904 138.845 19.7154 138.501 19.9772C138.162 20.239 137.761 20.4447 137.299 20.5943L136.691 20.9029H133.388L133.374 19.3811H135.842C136.243 19.3811 136.575 19.311 136.839 19.1707C137.103 19.0304 137.301 18.8364 137.433 18.5886C137.57 18.3408 137.638 18.058 137.638 17.7401C137.638 17.3988 137.572 17.1042 137.44 16.8564C137.308 16.604 137.108 16.4099 136.839 16.2744C136.57 16.1388 136.231 16.071 135.821 16.071H134.024V24.76H132.08V14.5492ZM137.893 24.76L135.51 20.1876L137.568 20.1806L139.979 24.6618V24.76H137.893Z" fill="#0B1228"/>
<path d="M147.989 16.099L145.054 24.76H142.996L146.844 14.5492H148.159L147.989 16.099ZM150.443 24.76L147.494 16.099L147.317 14.5492H148.64L152.508 24.76H150.443ZM150.309 20.966V22.4878H144.786V20.966H150.309Z" fill="#0B1228"/>
<path d="M159.126 14.5492V24.76H157.188V14.5492H159.126ZM162.323 14.5492V16.071H154.027V14.5492H162.323Z" fill="#0B1228"/>
<path d="M173.784 19.3951V19.9211C173.784 20.6925 173.681 21.3868 173.473 22.0039C173.266 22.6164 172.971 23.1377 172.589 23.5678C172.207 23.998 171.752 24.3276 171.224 24.5567C170.696 24.7857 170.109 24.9003 169.463 24.9003C168.827 24.9003 168.242 24.7857 167.71 24.5567C167.181 24.3276 166.724 23.998 166.338 23.5678C165.951 23.1377 165.652 22.6164 165.439 22.0039C165.227 21.3868 165.121 20.6925 165.121 19.9211V19.3951C165.121 18.619 165.227 17.9247 165.439 17.3123C165.652 16.6998 165.949 16.1785 166.33 15.7484C166.712 15.3136 167.167 14.9816 167.695 14.7526C168.228 14.5235 168.813 14.4089 169.449 14.4089C170.095 14.4089 170.682 14.5235 171.21 14.7526C171.738 14.9816 172.193 15.3136 172.575 15.7484C172.962 16.1785 173.259 16.6998 173.466 17.3123C173.678 17.9247 173.784 18.619 173.784 19.3951ZM171.818 19.9211V19.3811C171.818 18.8247 171.767 18.3362 171.663 17.9154C171.559 17.4899 171.406 17.1323 171.203 16.8424C171 16.5525 170.751 16.3351 170.453 16.1902C170.156 16.0406 169.822 15.9658 169.449 15.9658C169.072 15.9658 168.737 16.0406 168.445 16.1902C168.157 16.3351 167.912 16.5525 167.71 16.8424C167.507 17.1323 167.351 17.4899 167.243 17.9154C167.139 18.3362 167.087 18.8247 167.087 19.3811V19.9211C167.087 20.4728 167.139 20.9613 167.243 21.3868C167.351 21.8123 167.507 22.1722 167.71 22.4668C167.917 22.7567 168.167 22.9764 168.459 23.126C168.751 23.2756 169.086 23.3504 169.463 23.3504C169.841 23.3504 170.175 23.2756 170.468 23.126C170.76 22.9764 171.005 22.7567 171.203 22.4668C171.406 22.1722 171.559 21.8123 171.663 21.3868C171.767 20.9613 171.818 20.4728 171.818 19.9211Z" fill="#0B1228"/>
<path d="M177.46 14.5492H181.201C181.984 14.5492 182.656 14.6661 183.217 14.8998C183.778 15.1336 184.209 15.4796 184.511 15.9377C184.813 16.3959 184.964 16.9593 184.964 17.6279C184.964 18.1562 184.869 18.6143 184.681 19.0024C184.492 19.3904 184.226 19.7154 183.881 19.9772C183.542 20.239 183.141 20.4447 182.679 20.5943L182.071 20.9029H178.768L178.754 19.3811H181.222C181.623 19.3811 181.956 19.311 182.22 19.1707C182.484 19.0304 182.682 18.8364 182.814 18.5886C182.95 18.3408 183.019 18.058 183.019 17.7401C183.019 17.3988 182.953 17.1042 182.821 16.8564C182.689 16.604 182.488 16.4099 182.22 16.2744C181.951 16.1388 181.611 16.071 181.201 16.071H179.405V24.76H177.46V14.5492ZM183.273 24.76L180.89 20.1876L182.948 20.1806L185.36 24.6618V24.76H183.273Z" fill="#0B1228"/>
<path d="M194.085 22.1091C194.085 21.9128 194.054 21.7374 193.993 21.5832C193.936 21.4242 193.83 21.2816 193.674 21.1554C193.524 21.0245 193.309 20.8982 193.031 20.7767C192.757 20.6504 192.404 20.5195 191.97 20.3839C191.489 20.2343 191.041 20.066 190.626 19.879C190.211 19.692 189.846 19.4746 189.53 19.2268C189.219 18.979 188.976 18.6938 188.802 18.3712C188.627 18.044 188.54 17.6653 188.54 17.2351C188.54 16.8144 188.63 16.431 188.809 16.085C188.993 15.739 189.252 15.4422 189.587 15.1944C189.921 14.9419 190.315 14.7479 190.768 14.6123C191.225 14.4767 191.73 14.4089 192.281 14.4089C193.045 14.4089 193.705 14.5468 194.261 14.8227C194.822 15.0985 195.256 15.4725 195.563 15.9448C195.869 16.417 196.022 16.9476 196.022 17.5367H194.085C194.085 17.2188 194.016 16.9383 193.88 16.6951C193.747 16.452 193.545 16.2603 193.271 16.1201C193.003 15.9798 192.663 15.9097 192.253 15.9097C191.857 15.9097 191.527 15.9681 191.263 16.085C191.004 16.2019 190.808 16.3609 190.676 16.5619C190.549 16.7629 190.485 16.9873 190.485 17.2351C190.485 17.4221 190.53 17.5905 190.619 17.7401C190.709 17.885 190.843 18.0229 191.022 18.1538C191.202 18.2801 191.423 18.3993 191.687 18.5115C191.956 18.619 192.267 18.7266 192.621 18.8341C193.186 19.0024 193.681 19.1894 194.106 19.3951C194.535 19.6008 194.891 19.8346 195.174 20.0964C195.461 20.3582 195.676 20.6528 195.817 20.98C195.963 21.3073 196.036 21.679 196.036 22.0951C196.036 22.5346 195.949 22.9273 195.775 23.2733C195.6 23.6193 195.351 23.9138 195.025 24.1569C194.7 24.4 194.309 24.5847 193.851 24.7109C193.399 24.8372 192.892 24.9003 192.331 24.9003C191.831 24.9003 191.336 24.8348 190.846 24.7039C190.36 24.5683 189.919 24.3673 189.523 24.1008C189.127 23.8296 188.811 23.4883 188.575 23.0769C188.34 22.6608 188.222 22.1746 188.222 21.6182H190.174C190.174 21.9408 190.226 22.2167 190.329 22.4458C190.438 22.6702 190.589 22.8548 190.782 22.9998C190.98 23.14 191.211 23.2429 191.475 23.3083C191.739 23.3738 192.024 23.4065 192.331 23.4065C192.727 23.4065 193.052 23.3528 193.307 23.2452C193.566 23.133 193.759 22.9787 193.887 22.7824C194.019 22.586 194.085 22.3616 194.085 22.1091Z" fill="#0B1228"/>
<path d="M57.5919 5.0851V9.06145C57.4411 9.25313 57.203 9.46118 56.8776 9.6856C56.557 9.91001 56.1374 10.104 55.6188 10.2677C55.1002 10.4266 54.4637 10.5061 53.7093 10.5061C53.054 10.5061 52.4552 10.3986 51.913 10.1835C51.3708 9.96378 50.904 9.64352 50.5127 9.22274C50.1214 8.80197 49.8197 8.28768 49.6075 7.67989C49.3953 7.07211 49.2892 6.37782 49.2892 5.59705V4.92381C49.2892 4.14303 49.3883 3.44875 49.5863 2.84096C49.789 2.23317 50.0766 1.71889 50.4491 1.29811C50.8263 0.877338 51.2765 0.55708 51.7998 0.337341C52.3279 0.117602 52.9172 0.00773239 53.5679 0.00773239C54.4401 0.00773239 55.1568 0.150329 55.7178 0.435522C56.2836 0.720715 56.7173 1.11344 57.0191 1.6137C57.3208 2.10928 57.5094 2.67966 57.5849 3.32486H55.6895C55.6377 2.96953 55.5339 2.65863 55.3783 2.39213C55.2228 2.12097 55.0012 1.91058 54.7136 1.76097C54.4307 1.60668 54.0629 1.52954 53.6103 1.52954C53.2284 1.52954 52.8913 1.60435 52.599 1.75396C52.3067 1.90357 52.0615 2.12097 51.8635 2.40616C51.6655 2.69135 51.5146 3.04434 51.4109 3.46511C51.3119 3.88589 51.2624 4.36745 51.2624 4.90978V5.59705C51.2624 6.14406 51.3189 6.63029 51.4321 7.05574C51.5453 7.47652 51.7079 7.83184 51.9201 8.12171C52.137 8.4069 52.4033 8.62431 52.7192 8.77391C53.0398 8.91885 53.4029 8.99132 53.8083 8.99132C54.1761 8.99132 54.4802 8.96093 54.7206 8.90015C54.9658 8.83469 55.1615 8.75755 55.3076 8.66872C55.4538 8.57989 55.5669 8.4934 55.6471 8.40924V6.49471H53.6032V5.0851H57.5919Z" fill="#0B1228"/>
<path d="M68.8624 8.85106V10.3659H63.3885V8.85106H68.8624ZM63.9826 0.155004V10.3659H62.0377V0.155004H63.9826ZM68.1481 4.36978V5.84952H63.3885V4.36978H68.1481ZM68.8411 0.155004V1.67681H63.3885V0.155004H68.8411Z" fill="#0B1228"/>
<path d="M81.0946 0.155004V10.3659H79.1427L74.765 3.28278V10.3659H72.8202V0.155004H74.765L79.1568 7.24509V0.155004H81.0946Z" fill="#0B1228"/>
<path d="M92.5065 8.85106V10.3659H87.0326V8.85106H92.5065ZM87.6267 0.155004V10.3659H85.6819V0.155004H87.6267ZM91.7922 4.36978V5.84952H87.0326V4.36978H91.7922ZM92.4852 0.155004V1.67681H87.0326V0.155004H92.4852Z" fill="#0B1228"/>
<path d="M101.853 7.71496C101.853 7.5186 101.823 7.34327 101.761 7.18899C101.705 7.03003 101.599 6.88743 101.443 6.7612C101.292 6.63029 101.078 6.50406 100.8 6.3825C100.526 6.25627 100.172 6.12536 99.7387 5.98978C99.2578 5.84017 98.8099 5.67185 98.395 5.48484C97.9801 5.29783 97.6147 5.08043 97.2988 4.83264C96.9876 4.58485 96.7448 4.29966 96.5704 3.97706C96.3959 3.64979 96.3087 3.27109 96.3087 2.84096C96.3087 2.42019 96.3983 2.03681 96.5775 1.69084C96.7613 1.34487 97.0206 1.04799 97.3554 0.800195C97.6901 0.547729 98.0838 0.353704 98.5364 0.218121C98.9938 0.0825371 99.4982 0.0147453 100.05 0.0147453C100.814 0.0147453 101.474 0.152667 102.03 0.428509C102.591 0.704352 103.025 1.07838 103.331 1.55058C103.638 2.02279 103.791 2.55343 103.791 3.14252H101.853C101.853 2.8246 101.785 2.54408 101.648 2.30097C101.516 2.05785 101.313 1.86616 101.04 1.7259C100.771 1.58565 100.432 1.51552 100.022 1.51552C99.6255 1.51552 99.2955 1.57396 99.0315 1.69084C98.7722 1.80772 98.5765 1.96668 98.4445 2.16772C98.3172 2.36876 98.2536 2.59317 98.2536 2.84096C98.2536 3.02797 98.2983 3.19629 98.3879 3.34589C98.4775 3.49083 98.6119 3.62875 98.791 3.75966C98.9702 3.88589 99.1918 4.00511 99.4558 4.11732C99.7246 4.22485 100.036 4.33238 100.389 4.43991C100.955 4.60822 101.45 4.79524 101.874 5.00095C102.304 5.20666 102.659 5.44043 102.942 5.70224C103.23 5.96406 103.444 6.2586 103.586 6.58588C103.732 6.91315 103.805 7.28483 103.805 7.70093C103.805 8.14041 103.718 8.53314 103.544 8.87911C103.369 9.22508 103.119 9.51962 102.794 9.76274C102.469 10.0059 102.077 10.1905 101.62 10.3168C101.167 10.443 100.66 10.5061 100.099 10.5061C99.5996 10.5061 99.1046 10.4407 98.6142 10.3097C98.1286 10.1742 97.6878 9.97313 97.2917 9.70664C96.8957 9.43547 96.5798 9.09417 96.3441 8.68275C96.1083 8.26665 95.9905 7.78041 95.9905 7.22405H97.9424C97.9424 7.54665 97.9942 7.82249 98.098 8.05158C98.2064 8.276 98.3573 8.46067 98.5506 8.6056C98.7486 8.74586 98.9796 8.84872 99.2437 8.91417C99.5077 8.97963 99.7929 9.01235 100.099 9.01235C100.495 9.01235 100.821 8.95859 101.075 8.85106C101.335 8.73885 101.528 8.58457 101.655 8.3882C101.787 8.19184 101.853 7.96743 101.853 7.71496Z" fill="#0B1228"/>
<path d="M109.114 0.155004L111.377 4.91679L113.654 0.155004H115.79L112.367 6.62795V10.3659H110.394V6.62795L106.964 0.155004H109.114Z" fill="#0B1228"/>
<path d="M124.705 7.71496C124.705 7.5186 124.675 7.34327 124.613 7.18899C124.557 7.03003 124.451 6.88743 124.295 6.7612C124.144 6.63029 123.93 6.50406 123.652 6.3825C123.378 6.25627 123.024 6.12536 122.591 5.98978C122.11 5.84017 121.662 5.67185 121.247 5.48484C120.832 5.29783 120.467 5.08043 120.151 4.83264C119.84 4.58485 119.597 4.29966 119.422 3.97706C119.248 3.64979 119.161 3.27109 119.161 2.84096C119.161 2.42019 119.25 2.03681 119.429 1.69084C119.613 1.34487 119.873 1.04799 120.207 0.800195C120.542 0.547729 120.936 0.353704 121.388 0.218121C121.846 0.0825371 122.35 0.0147453 122.902 0.0147453C123.666 0.0147453 124.326 0.152667 124.882 0.428509C125.443 0.704352 125.877 1.07838 126.183 1.55058C126.49 2.02279 126.643 2.55343 126.643 3.14252H124.705C124.705 2.8246 124.637 2.54408 124.5 2.30097C124.368 2.05785 124.165 1.86616 123.892 1.7259C123.623 1.58565 123.284 1.51552 122.874 1.51552C122.478 1.51552 122.148 1.57396 121.884 1.69084C121.624 1.80772 121.429 1.96668 121.297 2.16772C121.169 2.36876 121.106 2.59317 121.106 2.84096C121.106 3.02797 121.15 3.19629 121.24 3.34589C121.33 3.49083 121.464 3.62875 121.643 3.75966C121.822 3.88589 122.044 4.00511 122.308 4.11732C122.577 4.22485 122.888 4.33238 123.241 4.43991C123.807 4.60822 124.302 4.79524 124.727 5.00095C125.156 5.20666 125.512 5.44043 125.794 5.70224C126.082 5.96406 126.297 6.2586 126.438 6.58588C126.584 6.91315 126.657 7.28483 126.657 7.70093C126.657 8.14041 126.57 8.53314 126.396 8.87911C126.221 9.22508 125.971 9.51962 125.646 9.76274C125.321 10.0059 124.929 10.1905 124.472 10.3168C124.019 10.443 123.512 10.5061 122.951 10.5061C122.452 10.5061 121.957 10.4407 121.466 10.3097C120.981 10.1742 120.54 9.97313 120.144 9.70664C119.748 9.43547 119.432 9.09417 119.196 8.68275C118.96 8.26665 118.843 7.78041 118.843 7.22405H120.794C120.794 7.54665 120.846 7.82249 120.95 8.05158C121.058 8.276 121.209 8.46067 121.403 8.6056C121.601 8.74586 121.832 8.84872 122.096 8.91417C122.36 8.97963 122.645 9.01235 122.951 9.01235C123.347 9.01235 123.673 8.95859 123.927 8.85106C124.187 8.73885 124.38 8.58457 124.507 8.3882C124.639 8.19184 124.705 7.96743 124.705 7.71496Z" fill="#0B1228"/>
</svg>
